<?xml version="1.0" standalone="no"?>
<!DOCTYPE svg PUBLIC "-//W3C//DTD SVG 20010904//EN"
 "http://www.w3.org/TR/2001/REC-SVG-20010904/DTD/svg10.dtd">
<svg version="1.0" xmlns="http://www.w3.org/2000/svg"
 width="512.000000pt" height="512.000000pt" viewBox="0 0 512.000000 512.000000"
 preserveAspectRatio="xMidYMid meet">
<metadata>
Created by potrace 1.14, written by Peter Selinger 2001-2017
</metadata>
<g transform="translate(0.000000,512.000000) scale(0.100000,-0.100000)"
fill="#000000" stroke="none">
<path d="M2426 4796 c-71 -37 -78 -60 -80 -272 l-1 -184 -25 -1 c-135 -4 -402
-79 -588 -165 -41 -19 -76 -34 -78 -34 -3 0 -51 -28 -107 -61 -329 -199 -593
-474 -766 -800 -51 -97 -141 -316 -141 -344 0 -9 -3 -14 -7 -12 -5 3 -8 -5 -9
-16 0 -12 -4 -33 -7 -47 -30 -121 -37 -153 -43 -196 -3 -27 -9 -58 -11 -69 -9
-35 -12 -427 -3 -485 4 -30 11 -75 15 -100 18 -120 79 -347 115 -425 141 -310
254 -480 445 -671 240 -241 497 -399 828 -508 94 -31 293 -72 402 -82 143 -14
408 -8 500 11 11 3 37 7 58 10 190 26 481 135 675 252 58 34 109 63 113 63 4
0 9 3 11 8 2 4 41 36 87 71 114 87 275 248 362 363 20 26 40 44 44 40 5 -4 5
-2 2 4 -4 6 8 31 25 55 69 95 174 301 233 459 30 80 71 238 81 310 3 25 8 47
9 51 10 16 20 174 20 319 0 149 -6 250 -20 320 -4 22 -17 85 -20 100 -1 3 -5
25 -9 50 -5 25 -12 50 -16 55 -4 6 -10 24 -13 42 -16 84 -117 319 -192 448
-32 54 -105 159 -171 246 -50 66 -251 267 -299 300 -19 13 -35 29 -35 34 0 6
28 57 62 115 56 95 62 110 63 162 0 49 -4 61 -29 87 -39 41 -271 172 -304 173
-58 1 -73 -3 -104 -31 -18 -16 -59 -76 -92 -134 l-58 -104 -93 33 c-88 31
-235 73 -280 79 -60 8 -95 18 -96 29 0 6 -1 92 -3 191 -2 199 -7 216 -62 255
-34 22 -44 24 -192 25 -139 1 -160 -1 -196 -19z m424 -960 c201 -40 389 -116
552 -223 40 -26 78 -52 84 -58 6 -5 28 -23 49 -40 214 -170 401 -443 487 -710
191 -596 -3 -1252 -488 -1651 -69 -57 -213 -150 -226 -146 -4 1 -8 -2 -8 -8 0
-5 -5 -10 -12 -10 -6 0 -19 -6 -27 -14 -41 -35 -246 -106 -395 -138 -113 -23
-388 -33 -486 -17 -30 5 -70 11 -87 14 -31 5 -60 11 -143 33 -170 44 -408 170
-550 289 -368 310 -566 745 -554 1218 2 110 8 166 24 240 5 22 12 56 15 75 9
54 61 204 100 286 123 268 337 506 592 662 172 105 305 155 518 197 103 20
145 23 295 20 113 -2 205 -8 260 -19z"/>
<path d="M3130 3222 c-31 -14 -57 -38 -92 -84 -20 -26 -39 -44 -43 -40 -4 4
-5 2 -3 -3 2 -8 -92 -143 -127 -181 -5 -6 -37 -46 -70 -89 -33 -42 -79 -101
-103 -131 l-42 -53 -64 6 c-151 14 -282 -83 -322 -238 -36 -142 31 -288 163
-355 49 -25 68 -29 142 -29 68 0 96 5 132 22 54 26 136 104 145 139 3 13 10
24 14 24 9 0 21 58 25 119 1 19 -4 58 -11 85 -7 28 -10 55 -5 60 4 6 95 123
202 259 107 137 205 265 218 284 60 92 1 214 -105 212 -21 0 -46 -3 -54 -7z"/>
</g>
</svg>
